<?xml version="1.0" encoding="UTF-8"?>
<svg width="426px" height="605px" viewBox="0 0 426 605" version="1.1" xmlns="http://www.w3.org/2000/svg" xmlns:xlink="http://www.w3.org/1999/xlink">
    <!-- Generator: Sketch 47 (45396) - http://www.bohemiancoding.com/sketch -->
    <title>lock</title>
    <desc>Created with Sketch.</desc>
    <defs></defs>
    <g id="Page-1" stroke="none" stroke-width="1" fill="none" fill-rule="evenodd">
        <path d="M344.858891,233.561446 L342.538503,257 L82.7359516,257 L80.4155639,233.561446 C74.3320131,172.110664 81.1483502,123.691663 102.149543,88.3668225 C124.429147,50.8916425 161.538019,30.0359563 210.609595,26.1973776 L212.637227,26.038768 L214.664859,26.1973776 C263.736435,30.0359563 300.845308,50.8916425 323.124912,88.3668225 C344.126104,123.691663 350.942442,172.110664 344.858891,233.561446 Z M213.08775,26.0000165 C212.911478,26.0000765 212.895082,26.0001036 212.688852,26.0004448 L212.585598,26.0004448 C212.470541,26.0002163 212.43478,26.0002874 212.446979,26.0001421 L212.240727,26.0017813 C163.772472,26.1947209 130.395512,41.7721424 109.117474,72.7954982 C86.4352079,105.866217 76.1672149,158.124765 79.6706402,229.73023 L80.9976968,256.853545 L53.8423338,257.000426 C38.4469598,257.083698 26,269.594185 26,285 L26,551 C26,566.463973 38.536027,579 54,579 L372,579 C387.463973,579 400,566.463973 400,551 L400,285 C400,269.536027 387.463973,257 372,257 L344.269628,257 L345.603852,229.729457 C349.107172,158.124268 338.839134,105.865894 316.156824,72.7950204 C294.886684,41.783096 261.526648,26.2052601 213.08775,26.0000165 Z" id="lock" stroke="#000000" stroke-width="52"></path>
    </g>
</svg>