<?xml version="1.0" encoding="UTF-8"?>
<svg width="1602px" height="1195px" viewBox="0 0 1602 1195" version="1.1" xmlns="http://www.w3.org/2000/svg" xmlns:xlink="http://www.w3.org/1999/xlink">
    <!-- Generator: Sketch 47 (45396) - http://www.bohemiancoding.com/sketch -->
    <title>Hamburger normal</title>
    <desc>Created with Sketch.</desc>
    <defs></defs>
    <g id="Page-1" stroke="none" stroke-width="1" fill="none" fill-rule="evenodd">
        <path d="M1531.4456,1195 L70.5544041,1195 C31.5882827,1195 0,1163.41897 0,1124.46181 C0,1085.50464 31.5882827,1053.92361 70.5544041,1053.92361 L1531.4456,1053.92361 C1570.41172,1053.92361 1602,1085.50464 1602,1124.46181 C1602,1163.41897 1570.41172,1195 1531.4456,1195 Z M1531.4456,668.038194 L70.5544041,668.038194 C31.5882827,668.038194 0,636.457169 0,597.5 C0,558.542831 31.5882827,526.961806 70.5544041,526.961806 L1531.4456,526.961806 C1570.41172,526.961806 1602,558.542831 1602,597.5 C1602,636.457169 1570.41172,668.038194 1531.4456,668.038194 Z M1531.4456,141.076389 L70.5544041,141.076389 C31.5882827,141.076389 0,109.495364 0,70.5381944 C0,31.5810254 31.5882827,2.10371889e-14 70.5544041,1.05101872e-29 L1531.4456,0 C1570.41172,1.01775274e-13 1602,31.5810254 1602,70.5381944 C1602,109.495364 1570.41172,141.076389 1531.4456,141.076389 Z" id="Hamburger-normal" fill="#2F2F2F"></path>
    </g>
</svg>